#N canvas 74 41 724 696 10;
#X declare -lib mrpeach;
#X obj 120 420 import mrpeach;
#X obj 268 425 udpsend;
#X obj 267 310 packOSC;
#X msg 326 350 disconnect;
#X msg 243 241 send /x \$1;
#X msg 345 241 send /y \$1;
#X msg 449 244 send /v \$1;
#X floatatom 346 178 5 0 700 0 - - -;
#X msg 241 178 0;
#X floatatom 124 175 4 0 2 0 - - -;
#X floatatom 460 180 5 0 5 0 - - -;
#X floatatom 568 181 5 1 8 0 - - -;
#X msg 560 246 send /t \$1;
#X msg 123 239 send /p \$1;
#X msg 346 381 connect 192.168.1.74 12001;
#X connect 2 0 1 0;
#X connect 3 0 1 0;
#X connect 4 0 2 0;
#X connect 5 0 2 0;
#X connect 6 0 2 0;
#X connect 7 0 5 0;
#X connect 8 0 4 0;
#X connect 9 0 13 0;
#X connect 10 0 6 0;
#X connect 11 0 12 0;
#X connect 12 0 2 0;
#X connect 13 0 2 0;
#X connect 14 0 1 0;
